<mxfile host="app.diagrams.net" agent="Mozilla/5.0 (Windows NT 10.0; Win64; x64) AppleWebKit/537.36 (KHTML, like Gecko) Chrome/123.0.0.0 Safari/537.36" version="26.0.15">
  <diagram name="Page-1" id="Evi4ocgQTqMd7_unA6_0">
    <mxGraphModel dx="2074" dy="1178" grid="1" gridSize="10" guides="1" tooltips="1" connect="1" arrows="1" fold="1" page="1" pageScale="1" pageWidth="850" pageHeight="1100" math="0" shadow="0">
      <root>
        <mxCell id="0" />
        <mxCell id="1" parent="0" />
        <mxCell id="nLLU-YKK750_gsOKwFjY-48" value="" style="rounded=0;whiteSpace=wrap;html=1;" vertex="1" parent="1">
          <mxGeometry width="850" height="1100" as="geometry" />
        </mxCell>
        <mxCell id="nLLU-YKK750_gsOKwFjY-1" value="&lt;font style=&quot;font-size: 21px;&quot;&gt;Student&lt;/font&gt;" style="rounded=0;whiteSpace=wrap;html=1;" vertex="1" parent="1">
          <mxGeometry x="100" y="210" width="120" height="60" as="geometry" />
        </mxCell>
        <mxCell id="nLLU-YKK750_gsOKwFjY-2" value="&lt;font style=&quot;font-size: 21px;&quot;&gt;Advisor&lt;/font&gt;" style="rounded=0;whiteSpace=wrap;html=1;" vertex="1" parent="1">
          <mxGeometry x="240" y="120" width="120" height="60" as="geometry" />
        </mxCell>
        <mxCell id="nLLU-YKK750_gsOKwFjY-3" value="&lt;font style=&quot;font-size: 21px;&quot;&gt;Admin&lt;/font&gt;" style="rounded=0;whiteSpace=wrap;html=1;" vertex="1" parent="1">
          <mxGeometry x="380" y="210" width="120" height="60" as="geometry" />
        </mxCell>
        <mxCell id="nLLU-YKK750_gsOKwFjY-4" value="&lt;font style=&quot;font-size: 21px;&quot;&gt;Website&lt;/font&gt;" style="ellipse;whiteSpace=wrap;html=1;aspect=fixed;" vertex="1" parent="1">
          <mxGeometry x="250" y="370" width="100" height="100" as="geometry" />
        </mxCell>
        <mxCell id="nLLU-YKK750_gsOKwFjY-5" value="" style="endArrow=none;html=1;rounded=0;" edge="1" parent="1">
          <mxGeometry width="50" height="50" relative="1" as="geometry">
            <mxPoint x="130" y="550" as="sourcePoint" />
            <mxPoint x="230" y="550" as="targetPoint" />
          </mxGeometry>
        </mxCell>
        <mxCell id="nLLU-YKK750_gsOKwFjY-6" value="" style="endArrow=none;html=1;rounded=0;" edge="1" parent="1">
          <mxGeometry width="50" height="50" relative="1" as="geometry">
            <mxPoint x="130" y="600" as="sourcePoint" />
            <mxPoint x="230" y="600" as="targetPoint" />
          </mxGeometry>
        </mxCell>
        <mxCell id="nLLU-YKK750_gsOKwFjY-8" value="&lt;font style=&quot;font-size: 18px;&quot;&gt;Website Files&lt;/font&gt;" style="text;html=1;align=center;verticalAlign=middle;whiteSpace=wrap;rounded=0;" vertex="1" parent="1">
          <mxGeometry x="150" y="560" width="60" height="30" as="geometry" />
        </mxCell>
        <mxCell id="nLLU-YKK750_gsOKwFjY-9" value="&lt;font style=&quot;font-size: 21px;&quot;&gt;Database&lt;/font&gt;" style="ellipse;whiteSpace=wrap;html=1;aspect=fixed;" vertex="1" parent="1">
          <mxGeometry x="520" y="370" width="100" height="100" as="geometry" />
        </mxCell>
        <mxCell id="nLLU-YKK750_gsOKwFjY-10" value="" style="endArrow=none;html=1;rounded=0;" edge="1" parent="1">
          <mxGeometry width="50" height="50" relative="1" as="geometry">
            <mxPoint x="650" y="550" as="sourcePoint" />
            <mxPoint x="750" y="550" as="targetPoint" />
          </mxGeometry>
        </mxCell>
        <mxCell id="nLLU-YKK750_gsOKwFjY-11" value="" style="endArrow=none;html=1;rounded=0;" edge="1" parent="1">
          <mxGeometry width="50" height="50" relative="1" as="geometry">
            <mxPoint x="650" y="600" as="sourcePoint" />
            <mxPoint x="750" y="600" as="targetPoint" />
          </mxGeometry>
        </mxCell>
        <mxCell id="nLLU-YKK750_gsOKwFjY-12" value="&lt;font style=&quot;font-size: 18px;&quot;&gt;Database Data&lt;/font&gt;" style="text;html=1;align=center;verticalAlign=middle;whiteSpace=wrap;rounded=0;" vertex="1" parent="1">
          <mxGeometry x="670" y="560" width="60" height="30" as="geometry" />
        </mxCell>
        <mxCell id="nLLU-YKK750_gsOKwFjY-13" value="" style="endArrow=classic;html=1;rounded=0;exitX=0.5;exitY=1;exitDx=0;exitDy=0;entryX=0.02;entryY=0.28;entryDx=0;entryDy=0;entryPerimeter=0;curved=1;" edge="1" parent="1" source="nLLU-YKK750_gsOKwFjY-1" target="nLLU-YKK750_gsOKwFjY-4">
          <mxGeometry width="50" height="50" relative="1" as="geometry">
            <mxPoint x="190" y="360" as="sourcePoint" />
            <mxPoint x="240" y="310" as="targetPoint" />
            <Array as="points">
              <mxPoint x="180" y="360" />
            </Array>
          </mxGeometry>
        </mxCell>
        <mxCell id="nLLU-YKK750_gsOKwFjY-14" value="" style="endArrow=classic;html=1;rounded=0;exitX=0.08;exitY=0.23;exitDx=0;exitDy=0;entryX=0.6;entryY=1.017;entryDx=0;entryDy=0;entryPerimeter=0;curved=1;exitPerimeter=0;" edge="1" parent="1" source="nLLU-YKK750_gsOKwFjY-4" target="nLLU-YKK750_gsOKwFjY-1">
          <mxGeometry width="50" height="50" relative="1" as="geometry">
            <mxPoint x="170" y="280" as="sourcePoint" />
            <mxPoint x="262" y="408" as="targetPoint" />
            <Array as="points">
              <mxPoint x="250" y="340" />
            </Array>
          </mxGeometry>
        </mxCell>
        <mxCell id="nLLU-YKK750_gsOKwFjY-15" value="" style="endArrow=classic;html=1;rounded=0;exitX=0.57;exitY=0.03;exitDx=0;exitDy=0;exitPerimeter=0;entryX=0.558;entryY=1;entryDx=0;entryDy=0;entryPerimeter=0;curved=1;" edge="1" parent="1" source="nLLU-YKK750_gsOKwFjY-4" target="nLLU-YKK750_gsOKwFjY-2">
          <mxGeometry width="50" height="50" relative="1" as="geometry">
            <mxPoint x="310" y="360" as="sourcePoint" />
            <mxPoint x="360" y="310" as="targetPoint" />
            <Array as="points">
              <mxPoint x="320" y="320" />
            </Array>
          </mxGeometry>
        </mxCell>
        <mxCell id="nLLU-YKK750_gsOKwFjY-16" value="" style="endArrow=none;html=1;rounded=0;entryX=0.442;entryY=1;entryDx=0;entryDy=0;entryPerimeter=0;curved=1;startFill=1;startArrow=classic;" edge="1" parent="1" target="nLLU-YKK750_gsOKwFjY-2">
          <mxGeometry width="50" height="50" relative="1" as="geometry">
            <mxPoint x="290" y="370" as="sourcePoint" />
            <mxPoint x="330" y="320" as="targetPoint" />
            <Array as="points">
              <mxPoint x="280" y="320" />
            </Array>
          </mxGeometry>
        </mxCell>
        <mxCell id="nLLU-YKK750_gsOKwFjY-17" value="" style="endArrow=classic;html=1;rounded=0;exitX=1;exitY=0;exitDx=0;exitDy=0;entryX=0.583;entryY=1;entryDx=0;entryDy=0;entryPerimeter=0;curved=1;" edge="1" parent="1" source="nLLU-YKK750_gsOKwFjY-4" target="nLLU-YKK750_gsOKwFjY-3">
          <mxGeometry width="50" height="50" relative="1" as="geometry">
            <mxPoint x="417" y="393" as="sourcePoint" />
            <mxPoint x="417" y="290" as="targetPoint" />
            <Array as="points">
              <mxPoint x="440" y="340" />
            </Array>
          </mxGeometry>
        </mxCell>
        <mxCell id="nLLU-YKK750_gsOKwFjY-18" value="" style="endArrow=none;html=1;rounded=0;entryX=0.408;entryY=1.033;entryDx=0;entryDy=0;entryPerimeter=0;curved=1;startFill=1;startArrow=classic;exitX=0.77;exitY=0.04;exitDx=0;exitDy=0;exitPerimeter=0;" edge="1" parent="1" source="nLLU-YKK750_gsOKwFjY-4" target="nLLU-YKK750_gsOKwFjY-3">
          <mxGeometry width="50" height="50" relative="1" as="geometry">
            <mxPoint x="400" y="390" as="sourcePoint" />
            <mxPoint x="403" y="290" as="targetPoint" />
            <Array as="points">
              <mxPoint x="350" y="310" />
            </Array>
          </mxGeometry>
        </mxCell>
        <mxCell id="nLLU-YKK750_gsOKwFjY-19" value="Requests" style="text;html=1;align=center;verticalAlign=middle;whiteSpace=wrap;rounded=0;fillColor=default;" vertex="1" parent="1">
          <mxGeometry x="140" y="320" width="60" height="30" as="geometry" />
        </mxCell>
        <mxCell id="nLLU-YKK750_gsOKwFjY-21" value="Requests" style="text;html=1;align=center;verticalAlign=middle;whiteSpace=wrap;rounded=0;fillColor=default;" vertex="1" parent="1">
          <mxGeometry x="240" y="225" width="60" height="30" as="geometry" />
        </mxCell>
        <mxCell id="nLLU-YKK750_gsOKwFjY-22" value="Requests" style="text;html=1;align=center;verticalAlign=middle;whiteSpace=wrap;rounded=0;fillColor=default;" vertex="1" parent="1">
          <mxGeometry x="340" y="310" width="60" height="30" as="geometry" />
        </mxCell>
        <mxCell id="nLLU-YKK750_gsOKwFjY-23" value="Responses" style="text;html=1;align=center;verticalAlign=middle;whiteSpace=wrap;rounded=0;fillColor=default;" vertex="1" parent="1">
          <mxGeometry x="220" y="320" width="60" height="30" as="geometry" />
        </mxCell>
        <mxCell id="nLLU-YKK750_gsOKwFjY-25" value="Responses" style="text;html=1;align=center;verticalAlign=middle;whiteSpace=wrap;rounded=0;fillColor=default;" vertex="1" parent="1">
          <mxGeometry x="290" y="280" width="60" height="30" as="geometry" />
        </mxCell>
        <mxCell id="nLLU-YKK750_gsOKwFjY-26" value="Responses" style="text;html=1;align=center;verticalAlign=middle;whiteSpace=wrap;rounded=0;fillColor=default;" vertex="1" parent="1">
          <mxGeometry x="410" y="310" width="60" height="30" as="geometry" />
        </mxCell>
        <mxCell id="nLLU-YKK750_gsOKwFjY-28" value="" style="endArrow=classic;startArrow=none;html=1;rounded=0;startFill=0;entryX=0;entryY=1;entryDx=0;entryDy=0;curved=1;endFill=1;" edge="1" parent="1" target="nLLU-YKK750_gsOKwFjY-4">
          <mxGeometry width="50" height="50" relative="1" as="geometry">
            <mxPoint x="180" y="550" as="sourcePoint" />
            <mxPoint x="210" y="490" as="targetPoint" />
            <Array as="points">
              <mxPoint x="200" y="480" />
            </Array>
          </mxGeometry>
        </mxCell>
        <mxCell id="nLLU-YKK750_gsOKwFjY-29" value="Webpage Formats" style="text;html=1;align=center;verticalAlign=middle;whiteSpace=wrap;rounded=0;fillColor=default;" vertex="1" parent="1">
          <mxGeometry x="170" y="490" width="60" height="30" as="geometry" />
        </mxCell>
        <mxCell id="nLLU-YKK750_gsOKwFjY-31" value="" style="endArrow=classic;html=1;rounded=0;exitX=1;exitY=0.5;exitDx=0;exitDy=0;entryX=-0.03;entryY=0.43;entryDx=0;entryDy=0;entryPerimeter=0;curved=1;" edge="1" parent="1" source="nLLU-YKK750_gsOKwFjY-4" target="nLLU-YKK750_gsOKwFjY-9">
          <mxGeometry width="50" height="50" relative="1" as="geometry">
            <mxPoint x="440" y="450" as="sourcePoint" />
            <mxPoint x="490" y="400" as="targetPoint" />
            <Array as="points">
              <mxPoint x="430" y="400" />
            </Array>
          </mxGeometry>
        </mxCell>
        <mxCell id="nLLU-YKK750_gsOKwFjY-32" value="" style="endArrow=none;html=1;rounded=0;exitX=1;exitY=0.61;exitDx=0;exitDy=0;entryX=0;entryY=0.6;entryDx=0;entryDy=0;entryPerimeter=0;startArrow=classic;startFill=1;strokeColor=default;curved=1;exitPerimeter=0;" edge="1" parent="1" source="nLLU-YKK750_gsOKwFjY-4" target="nLLU-YKK750_gsOKwFjY-9">
          <mxGeometry width="50" height="50" relative="1" as="geometry">
            <mxPoint x="410" y="480" as="sourcePoint" />
            <mxPoint x="520" y="420" as="targetPoint" />
            <Array as="points">
              <mxPoint x="430" y="450" />
            </Array>
          </mxGeometry>
        </mxCell>
        <mxCell id="nLLU-YKK750_gsOKwFjY-33" value="SQL Data" style="text;html=1;align=center;verticalAlign=middle;whiteSpace=wrap;rounded=0;fillColor=default;" vertex="1" parent="1">
          <mxGeometry x="400" y="430" width="60" height="30" as="geometry" />
        </mxCell>
        <mxCell id="nLLU-YKK750_gsOKwFjY-34" value="SQL Calls" style="text;html=1;align=center;verticalAlign=middle;whiteSpace=wrap;rounded=0;fillColor=default;" vertex="1" parent="1">
          <mxGeometry x="410" y="390" width="60" height="30" as="geometry" />
        </mxCell>
        <mxCell id="nLLU-YKK750_gsOKwFjY-35" value="" style="endArrow=classic;html=1;rounded=0;exitX=1;exitY=1;exitDx=0;exitDy=0;curved=1;" edge="1" parent="1" source="nLLU-YKK750_gsOKwFjY-9">
          <mxGeometry width="50" height="50" relative="1" as="geometry">
            <mxPoint x="720" y="470" as="sourcePoint" />
            <mxPoint x="670" y="550" as="targetPoint" />
            <Array as="points">
              <mxPoint x="600" y="520" />
            </Array>
          </mxGeometry>
        </mxCell>
        <mxCell id="nLLU-YKK750_gsOKwFjY-36" value="" style="endArrow=classic;html=1;rounded=0;entryX=0.93;entryY=0.78;entryDx=0;entryDy=0;entryPerimeter=0;curved=1;" edge="1" parent="1" target="nLLU-YKK750_gsOKwFjY-9">
          <mxGeometry width="50" height="50" relative="1" as="geometry">
            <mxPoint x="680" y="550" as="sourcePoint" />
            <mxPoint x="730" y="460" as="targetPoint" />
            <Array as="points">
              <mxPoint x="680" y="480" />
            </Array>
          </mxGeometry>
        </mxCell>
        <mxCell id="nLLU-YKK750_gsOKwFjY-37" value="Data" style="text;html=1;align=center;verticalAlign=middle;whiteSpace=wrap;rounded=0;fillColor=default;" vertex="1" parent="1">
          <mxGeometry x="590" y="500" width="60" height="30" as="geometry" />
        </mxCell>
        <mxCell id="nLLU-YKK750_gsOKwFjY-38" value="Data" style="text;html=1;align=center;verticalAlign=middle;whiteSpace=wrap;rounded=0;fillColor=default;" vertex="1" parent="1">
          <mxGeometry x="640" y="480" width="60" height="30" as="geometry" />
        </mxCell>
        <mxCell id="nLLU-YKK750_gsOKwFjY-39" value="" style="endArrow=none;dashed=1;html=1;rounded=0;curved=1;strokeColor=light-dark(#ff0000, #ededed);" edge="1" parent="1">
          <mxGeometry width="50" height="50" relative="1" as="geometry">
            <mxPoint x="480" y="590" as="sourcePoint" />
            <mxPoint x="520" y="260" as="targetPoint" />
            <Array as="points">
              <mxPoint x="470" y="420" />
            </Array>
          </mxGeometry>
        </mxCell>
        <mxCell id="nLLU-YKK750_gsOKwFjY-40" value="&lt;font style=&quot;color: rgb(255, 0, 0);&quot;&gt;Website Server/Database Boundary&lt;/font&gt;" style="text;html=1;align=center;verticalAlign=middle;whiteSpace=wrap;rounded=0;" vertex="1" parent="1">
          <mxGeometry x="420" y="600" width="110" height="30" as="geometry" />
        </mxCell>
        <mxCell id="nLLU-YKK750_gsOKwFjY-41" value="" style="endArrow=none;dashed=1;html=1;rounded=0;curved=1;strokeColor=#FF0000;" edge="1" parent="1">
          <mxGeometry width="50" height="50" relative="1" as="geometry">
            <mxPoint x="90" y="350" as="sourcePoint" />
            <mxPoint x="490" y="330" as="targetPoint" />
            <Array as="points">
              <mxPoint x="300" y="370" />
            </Array>
          </mxGeometry>
        </mxCell>
        <mxCell id="nLLU-YKK750_gsOKwFjY-42" value="&lt;font style=&quot;color: rgb(255, 0, 0);&quot;&gt;User/Website Boundary&lt;/font&gt;" style="text;html=1;align=center;verticalAlign=middle;whiteSpace=wrap;rounded=0;" vertex="1" parent="1">
          <mxGeometry x="10" y="330" width="80" height="30" as="geometry" />
        </mxCell>
        <mxCell id="nLLU-YKK750_gsOKwFjY-44" value="&lt;font style=&quot;font-size: 21px;&quot;&gt;Parsing Program&lt;/font&gt;" style="ellipse;whiteSpace=wrap;html=1;aspect=fixed;" vertex="1" parent="1">
          <mxGeometry x="650" y="200" width="100" height="100" as="geometry" />
        </mxCell>
        <mxCell id="nLLU-YKK750_gsOKwFjY-46" value="" style="endArrow=classic;html=1;rounded=0;exitX=0;exitY=1;exitDx=0;exitDy=0;entryX=1;entryY=0;entryDx=0;entryDy=0;curved=1;" edge="1" parent="1" source="nLLU-YKK750_gsOKwFjY-44" target="nLLU-YKK750_gsOKwFjY-9">
          <mxGeometry width="50" height="50" relative="1" as="geometry">
            <mxPoint x="740" y="380" as="sourcePoint" />
            <mxPoint x="790" y="330" as="targetPoint" />
            <Array as="points">
              <mxPoint x="620" y="330" />
            </Array>
          </mxGeometry>
        </mxCell>
        <mxCell id="nLLU-YKK750_gsOKwFjY-47" value="Parsed Course/Degree Data" style="text;html=1;align=center;verticalAlign=middle;whiteSpace=wrap;rounded=0;fillColor=default;" vertex="1" parent="1">
          <mxGeometry x="590" y="300" width="90" height="50" as="geometry" />
        </mxCell>
      </root>
    </mxGraphModel>
  </diagram>
</mxfile>
